<svg xmlns="http://www.w3.org/2000/svg" viewBox="0 0 1000 500">
  <g fill="none" stroke="rgba(255, 255, 255, 0.03)" stroke-width="1">
    <!-- North America -->
    <path d="M135,120 L185,120 L215,95 L250,110 L280,115 L285,140 L270,160 L250,170 L240,180 L200,170 L180,145 L135,120"/>
    <!-- South America -->
    <path d="M245,200 L270,220 L280,270 L260,300 L240,310 L220,280 L230,250 L245,200"/>
    <!-- Europe -->
    <path d="M420,110 L470,95 L500,100 L510,120 L490,135 L460,140 L420,110"/>
    <!-- Africa -->
    <path d="M420,160 L480,160 L520,200 L510,260 L470,300 L440,280 L430,230 L420,160"/>
    <!-- Asia -->
    <path d="M510,120 L600,100 L700,130 L710,160 L680,200 L580,190 L540,150 L510,120"/>
    <!-- Australia -->
    <path d="M700,250 L750,260 L770,290 L750,310 L710,300 L700,270 L700,250"/>
  </g>
</svg>
