<?xml version="1.0" encoding="UTF-8"?>
<svg xmlns="http://www.w3.org/2000/svg" viewBox="0 0 1000 500">
  <g stroke="rgba(255, 255, 255, 0.15)" stroke-width="1" fill="none">
    <!-- North America with detailed coastline -->
    <path d="M 150,50 C 160,45 170,42 180,40 C 190,38 200,37 210,38 L 220,35 C 230,32 240,30 250,29 C 260,28 270,28 280,30 L 290,35 C 295,38 298,42 300,47 C 302,52 303,58 302,64 C 301,70 298,76 294,81 C 290,86 285,90 280,93 L 270,98 C 265,100 260,102 255,103 C 250,104 245,104 240,103 L 230,100 C 225,98 221,95 218,91 C 215,87 213,82 212,77 L 210,70 C 208,65 205,61 201,58 C 197,55 192,53 187,52 L 180,50 C 175,49 170,49 165,50 C 160,51 156,53 153,56 M 290,35 L 300,32 C 310,30 320,29 330,30 C 340,31 350,33 359,37 L 370,42 C 375,45 379,49 382,54 C 385,59 387,65 388,71 L 390,80 C 391,86 390,92 388,98 C 386,104 382,109 377,113 L 370,118"/>
    
    <!-- Detailed coast of South America -->
    <path d="M 220,180 C 225,175 231,171 238,168 C 245,165 252,163 260,162 L 270,160 C 278,159 286,159 294,160 C 302,161 310,163 317,167 L 325,172 C 330,175 334,179 337,184 C 340,189 342,195 343,201 L 345,210 C 346,216 345,223 343,229 C 341,235 337,241 332,245 L 325,250 C 320,253 314,255 308,256 C 302,257 296,257 290,256 L 280,253 C 274,251 269,248 265,244 C 261,240 258,235 256,230 L 255,220"/>
    
    <!-- Europe with more detail -->
    <path d="M 420,60 C 425,58 430,57 435,56 C 440,55 445,54 450,54 L 460,55 C 465,56 470,57 475,59 C 480,61 484,64 488,67 L 495,72 C 498,75 500,79 502,83 C 504,87 505,91 505,95 L 504,100 C 503,104 501,108 498,111 C 495,114 492,117 488,119 L 480,122 C 476,124 471,125 466,125 C 461,125 456,124 452,122 L 445,119 C 441,117 438,114 435,110 C 432,106 430,102 429,97 L 428,90"/>
    
    <!-- Detailed African continent -->
    <path d="M 420,140 C 428,135 437,132 446,130 C 455,128 464,127 473,128 L 485,130 C 494,132 502,135 510,140 C 518,145 525,151 531,158 L 538,167 C 542,172 545,178 547,185 C 549,192 550,199 549,206 L 547,215 C 545,222 542,229 537,235 C 532,241 526,246 519,250 L 510,255 C 503,258 495,260 487,261 C 479,262 471,262 463,260 L 450,257 C 443,255 436,252 430,248 C 424,244 419,239 415,233 L 410,225"/>
    
    <!-- Asia with complex coastlines -->
    <path d="M 510,50 C 520,45 531,41 542,38 C 553,35 564,33 575,32 L 590,31 C 601,31 612,32 623,35 C 634,38 644,42 654,47 L 667,54 C 674,58 680,63 685,69 C 690,75 694,82 697,89 L 702,99 C 705,106 706,114 706,122 C 706,130 704,138 701,145 L 696,155 C 692,162 687,168 681,173 C 675,178 668,182 661,185 L 650,189 C 643,191 635,193 627,193 C 619,193 611,192 604,190 L 590,186"/>
    
    <!-- Mediterranean Sea and more detailed Europe -->
    <path d="M 450,95 C 455,93 460,92 465,91 C 470,90 475,89 480,89 L 490,90 C 495,91 500,92 505,94 C 510,96 514,99 518,102 L 525,107"/>
    
    <!-- India and Southeast Asia -->
    <path d="M 650,140 C 655,135 661,131 667,128 C 673,125 680,123 687,122 L 695,120 C 702,119 709,119 716,120 C 723,121 730,123 736,127 L 745,132"/>
    
    <!-- Indonesia with island chains -->
    <path d="M 700,200 C 705,198 710,197 715,196 C 720,195 725,194 730,194 L 740,195 M 750,194 C 755,193 760,193 765,194 C 770,195 775,196 780,198 M 790,200 C 795,201 800,203 805,205 C 810,207 814,210 818,213"/>
  </g>
</svg>